#!OML:ASF X:\für Bonn\!DataBase\2005_08_10_Bjorn_Final\c3d\bjorn.ASF
:FULLY-SPECIFIED
:DEGREES
46
root 1.3225 14.4095 3.70515 -180.56 -7.16233 -182.095
lowerback 22.8012 0.85801 3.21704
upperback 12.0506 -0.916685 -0.152326
thorax 0.490981 -1.39378 -1.79964
lowerneck -15.4351 -2.48064 1.50878
upperneck -0.362592 -4.03978 2.03299
head 2.57553 -2.08997 0.11049
rclavicle 2.98177e-015 -1.59028e-015
rhumerus 82.8879 -5.76791 -75.7827
rradius 8.68199
rwrist 49.6683
rhand -18.6066 10.5084
rfingers 7.12502
rthumb 7.68492 -19.332
lclavicle 2.98177e-015 -1.59028e-015
lhumerus 87.6936 -9.88084 63.2868
lradius 9.44955
lwrist -54.7706
lhand -32.3429 -4.20572
lfingers 7.12502
lthumb -5.57981 25.7008
rfemur -51.8476 -15.5507 14.1611
rtibia 102.167
rfoot -33.979 15.1444
rtoes -29.7812
lfemur -53.9562 3.10053 -21.6832
ltibia 103.298
lfoot -27.0492 -4.27342
ltoes -26.0926
47
root 1.32347 14.1597 3.72704 -180.745 -7.27166 -182.036
lowerback 23.3297 0.834884 3.38046
upperback 12.2271 -0.992876 -0.126702
thorax 0.431625 -1.46086 -1.84363
lowerneck -15.2427 -2.48973 1.42116
upperneck -0.793924 -4.04991 2.12336
head 2.39586 -2.11031 0.161771
rclavicle 7.55382e-015 3.18055e-015
rhumerus 83.0225 -5.96805 -75.7047
rradius 8.68874
rwrist 49.8551
rhand -18.8193 10.7307
rfingers 7.12502
rthumb 7.4796 -19.1171
lclavicle 7.55382e-015 3.18055e-015
lhumerus 87.848 -9.73713 63.113
lradius 9.66421
lwrist -54.2009
lhand -32.1306 -4.22442
lfingers 7.12502
lthumb -5.37484 25.6874
rfemur -53.2126 -16.1676 13.9759
rtibia 104.63
rfoot -34.1719 15.7608
rtoes -30.4627
lfemur -55.3707 3.35163 -21.5323
ltibia 105.691
lfoot -27.4053 -4.69098
ltoes -27.0029
48
root 1.32381 13.9063 3.748 -180.954 -7.3842 -181.96
lowerback 23.8683 0.797854 3.59801
upperback 12.3906 -1.07215 -0.125518
thorax 0.355331 -1.52536 -1.94256
lowerneck -14.972 -2.49686 1.36949
upperneck -1.25759 -4.06179 2.2363
head 2.19195 -2.13182 0.215396
rclavicle -9.93923e-016 -3.97569e-016
rhumerus 83.1509 -6.16393 -75.6601
rradius 8.62477
rwrist 49.9815
rhand -18.9741 10.954
rfingers 7.12502
rthumb 7.33014 -18.899
lclavicle -9.93923e-016 -3.97569e-016
lhumerus 87.95 -9.64687 62.9099
lradius 9.91838
lwrist -53.6048
lhand -31.9124 -4.301
lfingers 7.12502
lthumb -5.16412 25.6161
rfemur -54.5487 -16.8819 13.7915
rtibia 107.073
rfoot -34.3479 16.4077
rtoes -31.1154
lfemur -56.7437 3.58956 -21.3485
ltibia 108.041
lfoot -27.7679 -5.08114
ltoes -27.8818
49
root 1.32464 13.6512 3.76761 -181.195 -7.47478 -181.918
lowerback 24.4348 0.782795 3.77989
upperback 12.5575 -1.13185 -0.133243
thorax 0.272245 -1.58328 -2.03416
lowerneck -14.717 -2.52024 1.33711
upperneck -1.71607 -4.09806 2.32204
head 1.99327 -2.16671 0.254917
rclavicle -6.36111e-015 -1.03368e-014
rhumerus 83.2876 -6.37565 -75.6111
rradius 8.50108
rwrist 49.9458
rhand -19.065 11.1873
rfingers 7.12502
rthumb 7.24244 -18.6687
lclavicle -6.36111e-015 -1.03368e-014
lhumerus 88.1181 -9.54929 62.7073
lradius 10.0731
lwrist -52.959
lhand -31.7705 -4.39748
lfingers 7.12502
lthumb -5.02716 25.5229
rfemur -55.8459 -17.6556 13.5458
rtibia 109.491
rfoot -34.5148 17.064
rtoes -31.7256
lfemur -58.0519 3.90302 -21.1913
ltibia 110.358
lfoot -28.141 -5.49955
ltoes -28.8149
50
root 1.32477 13.395 3.78581 -181.435 -7.57615 -181.877
lowerback 25.0042 0.748393 3.9563
upperback 12.704 -1.2108 -0.128224
thorax 0.166216 -1.65041 -2.103
lowerneck -14.4385 -2.53406 1.27469
upperneck -2.15873 -4.1138 2.39392
head 1.79756 -2.19088 0.296591
rclavicle 2.98177e-015 -7.95139e-016
rhumerus 83.4004 -6.49674 -75.5471
rradius 8.419
rwrist 49.7894
rhand -18.9517 11.4322
rfingers 7.12502
rthumb 7.35177 -18.42
lclavicle 2.98177e-015 -7.95139e-016
lhumerus 88.3687 -9.41384 62.1734
lradius 10.1029
lwrist -51.8841
lhand -31.7341 -4.43683
lfingers 7.12502
lthumb -4.99199 25.4844
rfemur -57.1237 -18.5416 13.2665
rtibia 111.878
rfoot -34.6702 17.7993
rtoes -32.1631
lfemur -59.3469 4.25181 -21.077
ltibia 112.635
lfoot -28.5648 -5.69171
ltoes -30.0545
51
root 1.32401 13.1382 3.8028 -181.705 -7.66661 -181.834
lowerback 25.5775 0.720786 4.15307
upperback 12.8688 -1.28291 -0.133661
thorax 0.0819015 -1.71511 -2.1961
lowerneck -14.2758 -2.55315 1.2479
upperneck -2.55433 -4.1478 2.44709
head 1.63833 -2.22438 0.322701
rclavicle 1.39149e-014 -1.66979e-014
rhumerus 83.4761 -6.64859 -75.4964
rradius 8.42979
rwrist 49.5049
rhand -18.6865 11.6854
rfingers 7.12502
rthumb 7.60779 -18.1578
lclavicle 1.39149e-014 -1.66979e-014
lhumerus 88.4755 -9.32493 61.8495
lradius 10.2758
lwrist -51.0437
lhand -31.667 -4.51354
lfingers 7.12502
lthumb -4.92716 25.4092
rfemur -58.3572 -19.5145 12.9609
rtibia 114.224
rfoot -34.8173 18.5951
rtoes -32.5577
lfemur -60.5891 4.67351 -20.9693
ltibia 114.883
lfoot -29.0005 -5.86583
ltoes -31.221
52
root 1.32311 12.8844 3.81861 -182 -7.76152 -181.808
lowerback 26.1764 0.695144 4.30722
upperback 13.0223 -1.3585 -0.109526
thorax -0.0246605 -1.78565 -2.23026
lowerneck -14.1837 -2.58127 1.15063
upperneck -2.85643 -4.18213 2.49929
head 1.52514 -2.25383 0.358347
rclavicle -1.07344e-014 1.66979e-014
rhumerus 83.5252 -6.73445 -75.3987
rradius 8.48166
rwrist 49.122
rhand -18.3446 11.9197
rfingers 7.12502
rthumb 7.93778 -17.9113
lclavicle -1.07344e-014 1.66979e-014
lhumerus 88.3814 -9.2669 62.0965
lradius 10.5213
lwrist -50.612
lhand -31.6448 -4.59171
lfingers 7.12502
lthumb -4.90576 25.3315
rfemur -59.5099 -20.6123 12.5904
rtibia 116.506
rfoot -34.9361 19.5029
rtoes -32.8294
lfemur -61.7691 5.13084 -20.8944
ltibia 117.08
lfoot -29.4474 -6.08003
ltoes -32.0918
53
root 1.32225 12.6279 3.833 -182.305 -7.84487 -181.781
lowerback 26.7553 0.66844 4.47558
upperback 13.1715 -1.43006 -0.1057
thorax -0.124281 -1.85187 -2.29504
lowerneck -14.1846 -2.60935 1.0922
upperneck -3.09391 -4.22565 2.53716
head 1.4489 -2.28671 0.380154
rclavicle -9.74045e-015 1.11319e-014
rhumerus 83.5485 -6.80302 -75.328
rradius 8.55724
rwrist 48.6815
rhand -17.9965 12.1115
rfingers 7.12502
rthumb 8.27376 -17.7065
lclavicle -9.74045e-015 1.11319e-014
lhumerus 88.2972 -9.23076 62.102
lradius 10.7459
lwrist -49.9774
lhand -31.699 -4.59979
lfingers 7.12502
lthumb -4.95812 25.3222
rfemur -60.656 -21.831 12.1881
rtibia 118.773
rfoot -34.9968 20.5018
rtoes -32.9013
lfemur -62.9431 5.67252 -20.8119
ltibia 119.254
lfoot -29.8018 -6.58814
ltoes -32.1301
54
root 1.32103 12.3702 3.84553 -182.61 -7.94821 -181.755
lowerback 27.292 0.632154 4.64457
upperback 13.3168 -1.51039 -0.101511
thorax -0.206969 -1.92066 -2.35763
lowerneck -14.2636 -2.62834 1.06069
upperneck -3.28483 -4.26403 2.54794
head 1.40049 -2.31685 0.387367
rclavicle 3.57812e-015 3.97569e-016
rhumerus 83.5981 -6.86279 -75.2549
rradius 8.54161
rwrist 48.2699
rhand -17.7508 12.2947
rfingers 7.12502
rthumb 8.51086 -17.5138
lclavicle 3.57812e-015 3.97569e-016
lhumerus 88.2059 -9.20277 62.0645
lradius 10.9531
lwrist -49.2785
lhand -31.7088 -4.50967
lfingers 7.12502
lthumb -4.96755 25.4121
rfemur -61.7803 -23.2453 11.7437
rtibia 120.997
rfoot -35.0571 21.6104
rtoes -32.9114
lfemur -64.1157 6.26012 -20.7449
ltibia 121.399
lfoot -30.0876 -7.34093
ltoes -31.3672
55
root 1.31996 12.1187 3.85752 -182.928 -8.04417 -181.763
lowerback 27.8601 0.603306 4.78516
upperback 13.4521 -1.58479 -0.103439
thorax -0.313424 -1.98834 -2.41027
lowerneck -14.3926 -2.6571 1.03366
upperneck -3.40703 -4.31532 2.55251
head 1.38337 -2.35077 0.389607
rclavicle 2.76311e-014 -1.74931e-014
rhumerus 83.5403 -6.89236 -75.1758
rradius 8.67112
rwrist 47.9319
rhand -17.5282 12.4341
rfingers 7.12502
rthumb 8.72567 -17.3655
lclavicle 2.76311e-014 -1.74931e-014
lhumerus 88.1091 -9.19902 62.063
lradius 11.0853
lwrist -48.6149
lhand -31.7962 -4.39943
lfingers 7.12502
lthumb -5.05197 25.5203
rfemur -62.8453 -24.8033 11.2057
rtibia 123.146
rfoot -35.0428 22.8884
rtoes -32.5866
lfemur -65.2364 6.88955 -20.7438
ltibia 123.468
lfoot -30.2647 -8.22462
ltoes -29.9785
56
root 1.31936 11.8814 3.86721 -183.272 -8.1179 -181.735
lowerback 28.4701 0.572588 4.94202
upperback 13.5815 -1.65757 -0.0842016
thorax -0.441883 -2.05765 -2.44732
lowerneck -14.496 -2.67381 1.02469
upperneck -3.57483 -4.35484 2.53871
head 1.34565 -2.38175 0.384574
rclavicle 4.21423e-014 -1.63003e-014
rhumerus 83.4606 -6.88556 -75.0829
rradius 8.84701
rwrist 47.6936
rhand -17.4588 12.4752
rfingers 7.12502
rthumb 8.79261 -17.3216
lclavicle 4.21423e-014 -1.63003e-014
lhumerus 88.0627 -9.13505 61.6931
lradius 11.1889
lwrist -47.607
lhand -31.8823 -4.26125
lfingers 7.12502
lthumb -5.13509 25.6565
rfemur -63.7514 -26.3721 10.6953
rtibia 125.14
rfoot -35.0015 24.1468
rtoes -32.2251
lfemur -66.2232 7.6031 -20.6924
ltibia 125.411
lfoot -30.3812 -9.2315
ltoes -28.0562
57
root 1.31695 11.6554 3.87588 -183.625 -8.20111 -181.708
lowerback 29.1041 0.533946 5.138
upperback 13.6924 -1.72282 -0.0729635
thorax -0.598712 -2.12024 -2.51533
lowerneck -14.5626 -2.68821 1.11888
upperneck -3.71939 -4.4018 2.43803
head 1.30447 -2.41757 0.334848
rclavicle 7.7526e-015 -4.37326e-015
rhumerus 83.3368 -6.88461 -74.9793
rradius 9.01066
rwrist 47.5549
rhand -17.5305 12.4797
rfingers 7.12502
rthumb 8.7234 -17.3201
lclavicle 7.7526e-015 -4.37326e-015
lhumerus 88.0576 -9.11645 61.1706
lradius 11.2198
lwrist -46.4428
lhand -31.9732 -4.04686
lfingers 7.12502
lthumb -5.22286 25.8688
rfemur -64.5609 -28.0615 10.1228
rtibia 127.014
rfoot -34.934 25.4739
rtoes -31.6478
lfemur -67.1265 8.32754 -20.6834
ltibia 127.245
lfoot -30.5034 -10.0353
ltoes -26.5962
58
root 1.31559 11.4292 3.88278 -183.967 -8.28977 -181.698
lowerback 29.6755 0.494535 5.28905
upperback 13.8064 -1.79932 -0.057196
thorax -0.722724 -2.1891 -2.55046
lowerneck -14.5948 -2.69144 1.21352
upperneck -3.89705 -4.43453 2.33347
head 1.24621 -2.4479 0.285769
rclavicle -2.38542e-015 1.82882e-014
rhumerus 83.1933 -6.85591 -74.8757
rradius 9.15565
rwrist 47.5147
rhand -17.6856 12.493
rfingers 7.12502
rthumb 8.57371 -17.3129
lclavicle -2.38542e-015 1.82882e-014
lhumerus 88.122 -9.05175 60.378
lradius 11.133
lwrist -45.0051
lhand -32.0401 -3.86991
lfingers 7.12502
lthumb -5.28745 26.0441
rfemur -65.3556 -29.9201 9.47952
rtibia 128.87
rfoot -34.9121 26.8082
rtoes -31.2553
lfemur -68.0419 9.10991 -20.7135
ltibia 129.059
lfoot -30.6738 -10.6512
ltoes -25.5367
59
root 1.31419 11.2061 3.88763 -184.312 -8.36219 -181.706
lowerback 30.1803 0.483671 5.39862
upperback 13.9472 -1.85859 -0.0200602
thorax -0.782688 -2.2529 -2.54564
lowerneck -14.5901 -2.70235 1.27391
upperneck -4.10325 -4.47162 2.23694
head 1.17331 -2.48077 0.245973
rclavicle 5.1684e-015 6.36111e-015
rhumerus 83.0867 -6.81198 -74.738
rradius 9.15061
rwrist 47.548
rhand -18.0747 12.4563
rfingers 7.12502
rthumb 8.1982 -17.3647
lclavicle 5.1684e-015 6.36111e-015
lhumerus 88.2095 -8.97613 59.4951
lradius 11.0343
lwrist -43.4456
lhand -32.1118 -3.73973
lfingers 7.12502
lthumb -5.35666 26.1726
rfemur -66.0784 -31.9185 8.73906
rtibia 130.687
rfoot -34.9738 28.1904
rtoes -30.7983
lfemur -68.9386 10.0031 -20.8294
ltibia 130.84
lfoot -30.9231 -10.8646
ltoes -25.4225
